<svg width="40" height="40" viewBox="0 0 40 40" fill="none" xmlns="http://www.w3.org/2000/svg">
<path d="M4.28571 10C4.28571 9.21103 4.92531 8.57144 5.71428 8.57144H34.2857C35.0747 8.57144 35.7143 9.21103 35.7143 10C35.7143 10.789 35.0747 11.4286 34.2857 11.4286H5.71428C4.92531 11.4286 4.28571 10.789 4.28571 10Z" fill="white"/>
<path d="M4.28571 20C4.28571 19.211 4.92531 18.5714 5.71428 18.5714H34.2857C35.0747 18.5714 35.7143 19.211 35.7143 20C35.7143 20.789 35.0747 21.4286 34.2857 21.4286H5.71428C4.92531 21.4286 4.28571 20.789 4.28571 20Z" fill="white"/>
<path d="M5.71428 28.5714C4.92531 28.5714 4.28571 29.211 4.28571 30C4.28571 30.789 4.92531 31.4286 5.71428 31.4286H34.2857C35.0747 31.4286 35.7143 30.789 35.7143 30C35.7143 29.211 35.0747 28.5714 34.2857 28.5714H5.71428Z" fill="white"/>
</svg>
