<svg width="282" height="33" viewBox="0 0 282 33" fill="none" xmlns="http://www.w3.org/2000/svg">
<path d="M0.417969 0.44751H10.2818L12.4974 20.452H12.54L14.99 0.44751H24.4064L24.449 32.6806H18.0364V10.9504L15.5865 32.6806H9.4722L7.02223 10.9504V32.6806H0.417969V0.44751Z" fill="white"/>
<path d="M38.3599 30.6566C36.6769 32.2331 34.1417 33 32.203 33C26.3657 33 25.1514 27.6527 25.1514 24.1375C25.1514 19.8767 27.0048 16.8515 29.6678 14.9128C28.347 12.8677 27.2605 10.5242 27.2605 7.8612C27.2605 3.02518 30.2004 0 34.0139 0C38.2321 0 41.4277 2.0878 41.4277 7.52034C41.4277 11.5894 39.489 13.6346 37.316 15.9354L39.6168 20.2815C40.0216 19.195 40.4264 18.0659 40.4264 16.7876H46.1359C46.008 20.4093 44.7298 24.3505 42.9616 26.3318L46.4554 32.6591H39.4464L38.3599 30.6566ZM32.8208 20.2815C32.3308 20.6436 31.0952 21.858 31.0952 23.6688C31.0952 25.2027 32.0113 26.4383 33.183 26.4383C34.2269 26.4383 35.1856 25.9484 35.6756 25.4371L32.8208 20.2815ZM32.693 6.92382C32.693 7.69077 32.8634 8.41511 33.2469 9.09684L34.2056 10.9077C34.653 10.5455 36.0164 8.77728 36.0164 7.11556C36.0164 5.70949 35.2495 5.30471 34.3334 5.30471C33.2256 5.30471 32.693 5.87992 32.693 6.92382Z" fill="white"/>
<path d="M56.4484 9.54413C56.4484 8.13807 56.4484 5.87984 55.0423 5.87984C53.3167 5.87984 53.2741 7.20069 53.2741 16.2549C53.2741 25.5435 53.4019 26.8856 55.0423 26.8856C56.1288 26.8856 56.5762 25.4796 56.5762 21.4957V19.0671H63.0527V21.0483C63.0527 28.5261 60.6027 32.9573 54.808 32.9573C46.2011 32.9573 46.3503 26.3956 46.3503 16.2549C46.3503 6.43374 46.3077 0.19165 54.8506 0.19165C61.9022 0.19165 62.9035 4.85724 62.9035 9.77848V12.1219H56.4484V9.54413Z" fill="white"/>
<path d="M77.9646 8.32987C77.9646 7.00902 77.5599 6.07164 76.4307 6.07164C75.3868 6.07164 74.7477 6.88119 74.8968 8.15944C75.3868 14.8063 84.995 14.4015 84.995 23.4984C84.8672 30.827 82.055 32.9574 75.9407 32.9574C70.8278 32.9574 68.4204 30.4648 68.4204 23.541V22.6888L74.6625 22.7314V24.1801C74.6625 25.7566 75.1099 26.9922 76.3455 26.9922C77.5812 26.9922 78.3481 25.5436 78.1138 24.2227C77.7516 21.8793 76.1112 20.878 75.1312 20.111C71.6373 17.7037 68.4417 14.082 68.4417 9.28855C68.4417 4.66557 69.4856 3.72819 71.0195 2.17299C72.106 1.04388 73.789 0.17041 76.3668 0.17041C83.0563 0.17041 84.1428 4.3247 84.1428 9.58681H77.9646V8.32987Z" fill="white"/>
<path d="M95.8389 27.2906H91.3651L90.6407 32.6806H83.6743L89.7886 0.44751H97.6285L103.551 32.6806H96.6272L95.8389 27.2906ZM93.6659 7.28612H93.6233L92.0894 20.3668H95.1146L93.6659 7.28612Z" fill="white"/>
<path d="M115.076 27.2906H110.602L109.878 32.6806H102.89L109.004 0.44751H116.844L122.767 32.6806H115.843L115.076 27.2906ZM112.903 7.28612H112.86L111.327 20.3668H114.352L112.903 7.28612Z" fill="white"/>
<path d="M119.912 0.44751H135.72V7.88263H131.139V32.6806H124.492V7.88263H119.912V0.44751Z" fill="white"/>
<path d="M146.222 9.54413C146.222 8.13807 146.222 5.87984 144.816 5.87984C143.091 5.87984 143.048 7.20069 143.048 16.2549C143.048 25.5435 143.176 26.8856 144.816 26.8856C145.903 26.8856 146.35 25.4796 146.35 21.4957V19.0671H152.827V21.0483C152.827 28.5261 150.377 32.9573 144.582 32.9573C135.975 32.9573 136.124 26.3956 136.124 16.2549C136.124 6.43374 136.082 0.19165 144.625 0.19165C151.676 0.19165 152.677 4.85724 152.677 9.77848V12.1219H146.201V9.54413H146.222Z" fill="white"/>
<path d="M164.374 0.44751H171.063V32.6806H164.374V19.3655H161.157V32.6806H154.51V0.44751H161.157V11.9091H164.374V0.44751Z" fill="white"/>
<path d="M173.322 0.44751H180.799V32.6806H173.322V0.44751Z" fill="white"/>
<path d="M195.243 15.4453H203.381V32.7016H199.078V30.4008C198.034 32.659 195.776 32.9785 193.879 32.9785C186.04 32.9785 186.189 26.3743 186.189 16.3188C186.189 6.41237 186.551 0.212891 195.115 0.212891C202.316 0.212891 203.168 4.87848 203.168 9.79972V11.6958H196.479V10.311C196.479 8.138 196.393 5.87977 195.307 5.87977C193.943 5.87977 193.773 7.13671 193.773 16.2549C193.773 25.5434 194.05 27.0347 195.349 27.0347C196.436 27.0347 196.926 26.0334 196.926 21.8791H195.243V15.4453Z" fill="white"/>
<path d="M205.428 0.44751H213.885C220.042 0.44751 222.449 2.79096 222.449 9.77869C222.449 13.7199 221.683 16.106 217.827 16.7025C221.768 17.5121 222.535 20.0899 222.535 24.0737V32.6806H215.291V23.9459C215.291 20.729 214.801 19.7277 212.884 19.7277H212.65V32.6806H205.406V0.44751H205.428ZM212.671 6.02918V14.0821H213.672C215.164 14.0821 215.653 13.1234 215.653 10.0983C215.653 6.92395 215.164 6.02918 213.672 6.02918H212.671Z" fill="white"/>
<path d="M232.952 0.17041C240.43 0.17041 242.092 3.7921 242.092 16.6385C242.092 29.4422 240.409 32.9361 232.952 32.9361C225.389 32.9361 223.898 29.4422 223.898 16.6385C223.898 3.85601 225.389 0.17041 232.952 0.17041ZM232.952 27.0348C234.72 27.0348 234.635 25.2666 234.635 16.6171C234.635 8.01031 234.72 6.11424 232.952 6.11424C231.184 6.11424 231.333 8.01031 231.333 16.6171C231.312 25.2666 231.184 27.0348 232.952 27.0348Z" fill="white"/>
<path d="M251.145 0.44751V24.4359C251.145 26.6089 251.635 27.0989 252.764 27.0989C253.85 27.0989 254.298 26.6089 254.298 24.4359V0.44751H261.541V22.902C261.541 30.1028 258.772 32.9575 252.764 32.9575C246.735 32.9575 243.901 30.1028 243.901 22.902V0.44751H251.145Z" fill="white"/>
<path d="M263.822 0.44751H272.791C278.948 0.44751 281.398 3.66442 281.398 10.5882C281.398 17.8316 278.948 20.8142 272.578 20.8142H271.087V32.6806H263.844V0.44751H263.822ZM271.066 6.02918V15.403H272.11C273.601 15.403 274.091 13.8265 274.091 10.78C274.091 7.47785 273.601 6.02918 272.11 6.02918H271.066Z" fill="white"/>
</svg>
